<?xml version="1.0" standalone="no"?>
<!DOCTYPE svg PUBLIC "-//W3C//DTD SVG 20010904//EN"
 "http://www.w3.org/TR/2001/REC-SVG-20010904/DTD/svg10.dtd">
<svg version="1.0" xmlns="http://www.w3.org/2000/svg"
 width="640.000000pt" height="640.000000pt" viewBox="0 0 640.000000 640.000000"
 preserveAspectRatio="xMidYMid meet">
<metadata>
Created by potrace 1.14, written by Peter Selinger 2001-2017
</metadata>
<g transform="translate(0.000000,640.000000) scale(0.100000,-0.100000)"
fill="#000000" stroke="none">
<path d="M5325 6150 c-196 -12 -286 -34 -415 -100 -30 -15 -82 -34 -115 -40
-92 -19 -165 -45 -268 -94 -52 -25 -100 -46 -107 -46 -6 0 -26 -6 -43 -13
-152 -65 -316 -81 -618 -62 -116 7 -142 6 -187 -9 -57 -19 -58 -22 -37 -50 8
-11 15 -29 15 -41 0 -20 12 -32 161 -150 31 -25 80 -58 110 -73 30 -16 77 -41
104 -57 29 -16 69 -29 95 -31 218 -15 241 -14 363 11 66 14 135 34 152 44 17
10 52 21 77 25 25 4 63 16 83 26 21 11 54 25 73 31 19 6 50 22 70 35 19 13 41
24 49 24 7 0 30 11 51 24 38 25 153 51 227 51 36 0 42 -4 58 -35 16 -30 17
-49 11 -135 -9 -136 -12 -214 -14 -390 -2 -143 -3 -153 -31 -213 -24 -52 -29
-76 -30 -145 -1 -111 -22 -201 -58 -246 -16 -20 -32 -50 -35 -68 -5 -23 -21
-42 -57 -68 -27 -19 -54 -35 -59 -35 -15 0 -82 -44 -103 -67 -15 -18 -27 -20
-87 -15 -47 3 -70 1 -70 -6 0 -6 -20 -10 -47 -10 -27 1 -73 -3 -103 -7 -30 -5
-59 -8 -65 -6 -13 3 -153 -30 -190 -45 -16 -7 -52 -33 -80 -59 -46 -42 -53
-45 -90 -40 -30 5 -49 16 -77 48 -21 23 -38 51 -38 61 0 11 -6 27 -14 35 -21
24 -46 118 -46 173 0 26 -4 48 -10 48 -5 0 -10 6 -10 13 0 8 -11 19 -24 26
-13 7 -33 33 -45 57 -20 40 -21 47 -9 80 23 63 59 77 166 64 95 -12 115 -25
108 -70 -4 -23 0 -40 11 -52 21 -24 24 -23 67 11 24 20 54 32 84 36 97 12 178
27 197 36 82 37 91 38 235 39 63 0 131 5 150 10 19 6 67 15 105 20 62 8 73 13
98 42 41 49 42 66 6 132 -47 87 -97 132 -166 151 -32 9 -73 23 -90 32 -62 31
-298 0 -443 -58 -14 -5 -73 -18 -130 -29 -212 -38 -235 -43 -241 -52 -4 -6
-59 -23 -122 -38 -119 -29 -167 -29 -203 1 -16 13 -64 108 -64 127 0 6 -6 17
-14 24 -21 22 -44 70 -51 110 -14 73 -52 75 -85 4 -32 -67 -71 -72 -203 -26
-105 36 -182 40 -217 10 -21 -18 -22 -22 -10 -52 14 -35 117 -159 181 -218 26
-24 42 -51 53 -87 8 -28 28 -78 45 -110 45 -86 46 -88 62 -218 7 -57 9 -140 4
-225 -3 -74 -6 -173 -5 -220 1 -78 -1 -88 -23 -112 l-25 -27 -59 21 c-32 12
-95 27 -141 34 -64 10 -94 20 -135 47 -29 19 -57 36 -64 38 -30 10 -146 118
-218 203 -22 27 -54 64 -71 84 -39 45 -89 146 -97 196 -4 25 5 79 29 173 71
281 71 503 -2 598 -13 17 -31 56 -41 86 -23 72 -56 125 -90 141 -15 7 -38 29
-51 48 -12 19 -44 46 -71 60 -26 14 -70 43 -97 65 -95 78 -195 110 -326 106
-20 -1 -32 -9 -43 -32 -25 -48 -4 -105 50 -135 11 -6 40 -46 63 -90 l44 -79
-6 -115 c-8 -155 -21 -275 -36 -332 -9 -36 -10 -66 -1 -129 14 -103 14 -209 1
-209 -5 0 -10 -5 -10 -10 0 -6 -9 -23 -20 -38 -26 -36 -35 -114 -21 -182 11
-52 10 -61 -24 -154 -29 -81 -35 -112 -35 -177 0 -69 -4 -87 -30 -135 -16 -31
-32 -72 -35 -92 -18 -117 -29 -168 -35 -172 -10 -7 -57 -111 -65 -141 -4 -15
-25 -44 -48 -67 -42 -40 -48 -42 -167 -58 l-46 -6 -42 54 c-41 53 -42 56 -57
183 -8 72 -15 179 -15 238 0 60 -4 116 -9 125 -5 9 -11 35 -14 57 -3 22 -17
63 -30 90 -13 28 -27 61 -30 75 -8 33 -43 70 -66 70 -24 0 -30 -32 -37 -180
-5 -123 -18 -200 -41 -240 -14 -25 -46 -131 -63 -205 -13 -57 -49 -148 -63
-160 -7 -5 -28 -35 -46 -65 -19 -30 -39 -58 -46 -62 -49 -29 -85 -205 -67
-323 19 -127 42 -197 75 -236 18 -21 37 -38 43 -38 6 -1 20 -11 32 -23 11 -13
27 -29 36 -36 21 -17 168 -16 211 2 40 17 154 23 176 10 60 -37 74 -195 23
-255 -8 -8 -14 -25 -14 -37 0 -12 -9 -31 -20 -42 -12 -12 -20 -33 -20 -54 0
-40 -30 -115 -54 -135 -9 -7 -33 -41 -53 -75 -20 -33 -43 -67 -50 -74 -7 -7
-14 -24 -14 -38 -2 -32 -2 -34 -17 -74 -29 -77 -55 -117 -85 -130 -42 -18
-114 -71 -122 -90 -4 -8 -17 -50 -29 -94 l-21 -78 -55 -22 c-47 -19 -61 -31
-102 -91 -28 -42 -57 -73 -72 -78 -14 -5 -26 -12 -26 -17 0 -4 -15 -24 -32
-43 -18 -19 -50 -57 -71 -86 -21 -28 -42 -51 -47 -51 -5 0 -37 -17 -72 -37
-67 -39 -148 -114 -148 -137 0 -12 43 -32 107 -51 13 -3 23 -11 23 -16 0 -5 7
-9 15 -9 8 0 25 -16 39 -36 13 -19 27 -35 31 -34 4 1 13 -9 19 -22 7 -14 25
-26 48 -31 32 -8 47 -4 100 21 35 16 77 36 95 43 21 9 33 22 37 39 5 27 69 72
167 118 25 12 64 38 86 57 23 19 44 35 48 35 12 0 35 28 35 43 0 7 11 24 25
37 14 13 25 30 25 37 0 8 7 16 15 19 8 3 23 25 34 48 12 23 39 58 62 77 58 49
89 82 89 95 0 6 7 17 15 24 8 7 13 16 10 20 -3 5 -1 11 5 15 5 3 10 15 10 26
0 10 17 51 38 91 53 100 57 108 77 150 10 21 33 48 52 60 37 25 58 66 99 189
14 43 31 79 37 79 6 0 20 8 31 19 12 10 43 24 70 30 42 10 50 10 61 -5 6 -9
22 -18 34 -19 11 -1 36 -18 55 -38 19 -20 43 -37 54 -37 12 0 25 -6 29 -13 4
-7 23 -19 41 -26 17 -8 32 -16 32 -20 0 -3 21 -28 46 -54 43 -45 46 -52 55
-125 17 -145 25 -177 52 -217 15 -22 27 -47 27 -56 0 -9 9 -38 19 -65 11 -27
32 -89 47 -139 23 -79 33 -96 75 -136 26 -26 60 -49 76 -52 15 -4 70 -38 121
-77 50 -38 99 -70 106 -70 21 0 48 30 42 47 -3 8 -1 24 5 35 19 34 -27 309
-56 333 -17 15 -36 88 -44 174 -5 42 -2 206 5 364 13 287 10 413 -8 432 -24
25 -141 -183 -186 -330 -7 -23 -17 -35 -54 -59 -24 -15 -33 -16 -90 -4 -34 7
-70 19 -78 26 -39 34 -96 63 -153 77 -34 9 -69 24 -77 34 -27 33 -50 40 -80
23 -23 -13 -32 -14 -59 -3 -24 11 -31 19 -31 42 0 38 -18 82 -30 74 -17 -10
-12 89 6 124 20 41 33 142 24 190 -9 51 -1 111 16 111 7 0 29 35 50 78 120
255 126 264 198 282 73 19 171 52 193 66 12 8 29 14 37 14 8 0 21 8 28 18 7 9
26 23 41 31 15 8 46 32 68 53 22 21 44 38 49 38 4 0 18 16 30 35 32 52 69 67
159 65 109 -3 107 -3 148 34 52 46 93 57 209 55 91 -2 103 0 152 26 29 16 64
42 78 59 73 92 92 101 137 66 14 -11 29 -20 34 -20 4 0 26 -30 47 -66 22 -36
49 -71 62 -76 12 -6 27 -20 34 -33 14 -26 60 -54 140 -85 64 -24 220 -40 220
-21 0 18 0 19 15 55 8 20 15 53 15 75 0 49 12 81 42 113 46 50 110 70 283 88
146 15 164 18 230 29 87 16 121 6 152 -41 29 -43 29 -51 3 -443 -6 -97 -6
-169 2 -236 11 -90 10 -101 -10 -163 -12 -37 -22 -91 -22 -121 0 -30 -4 -55
-9 -55 -5 0 -12 -16 -15 -36 -4 -19 -19 -48 -34 -64 -15 -15 -39 -42 -55 -59
-30 -34 -67 -40 -88 -14 -10 12 -13 40 -11 104 3 69 0 94 -13 116 -20 34 -57
53 -104 53 -20 0 -52 5 -71 10 -40 11 -126 -1 -123 -17 1 -5 -24 -16 -55 -23
-31 -7 -66 -19 -78 -26 -14 -10 -52 -15 -113 -15 -69 -1 -94 -5 -98 -15 -3 -8
-9 -11 -14 -8 -5 3 -9 -4 -9 -15 0 -15 6 -21 21 -21 19 0 21 -4 15 -31 -3 -18
-19 -53 -35 -78 -26 -43 -31 -46 -67 -44 -54 4 -77 18 -95 60 -14 32 -14 44
-2 102 7 36 17 75 22 86 14 28 20 353 8 392 -13 42 -48 74 -122 111 -75 38
-106 46 -150 38 -54 -10 -60 -31 -60 -206 -1 -85 -7 -184 -14 -220 -7 -36 -19
-96 -27 -135 -8 -38 -17 -97 -19 -130 -3 -33 -11 -82 -18 -110 -10 -36 -11
-76 -5 -145 4 -52 7 -167 7 -255 0 -88 3 -200 7 -248 5 -61 3 -99 -5 -125 -10
-28 -10 -52 -2 -95 11 -63 -1 -160 -24 -183 -18 -19 -28 -99 -15 -124 6 -11
28 -31 48 -44 20 -13 57 -47 82 -75 25 -29 54 -57 65 -62 24 -11 47 -25 102
-61 23 -16 61 -35 85 -44 23 -8 45 -18 48 -22 17 -25 161 -59 203 -48 36 9 86
65 98 111 14 50 46 122 58 130 13 7 41 64 41 82 0 7 4 13 10 13 18 0 78 65
106 115 80 146 91 163 124 196 15 14 44 70 65 125 21 54 51 113 67 129 15 17
28 37 28 45 1 37 70 89 96 72 19 -12 22 -62 6 -94 -21 -43 0 -123 51 -196 21
-30 56 -93 78 -138 22 -45 56 -101 77 -125 74 -83 156 -159 172 -159 46 0 75
-78 54 -140 -19 -56 -41 -97 -53 -102 -21 -7 -89 -111 -101 -154 -16 -56 -3
-100 42 -152 21 -25 26 -37 18 -47 -6 -7 -8 -20 -4 -29 3 -9 1 -16 -5 -16 -6
0 -28 -15 -48 -34 -21 -18 -59 -43 -85 -55 -26 -11 -50 -25 -53 -31 -8 -12
-134 -12 -195 0 -39 8 -52 6 -95 -16 -27 -14 -65 -39 -83 -55 -29 -26 -33 -35
-30 -72 l3 -42 60 -17 c33 -9 74 -17 92 -17 18 -1 56 -12 86 -25 29 -13 75
-26 102 -31 28 -4 58 -11 67 -16 11 -6 26 -4 45 5 96 48 162 77 193 83 60 11
150 71 150 100 0 8 10 24 23 36 23 23 124 77 144 77 7 0 19 13 28 30 9 16 22
30 29 30 8 0 31 16 50 35 20 19 57 45 82 56 24 12 57 34 72 50 15 16 32 29 38
29 7 0 34 18 60 40 27 22 54 40 61 40 7 0 25 14 40 31 16 17 45 41 67 53 21
11 49 27 62 34 13 7 24 17 24 21 0 5 9 11 20 14 11 3 24 16 29 30 6 14 19 28
30 32 11 3 23 14 26 24 3 11 29 41 58 67 69 64 76 78 77 152 0 73 -12 101 -76
174 -100 114 -115 128 -151 142 -108 40 -147 56 -152 64 -32 49 -184 60 -364
25 l-107 -20 -92 22 c-85 20 -93 25 -120 62 -48 66 -62 144 -60 336 2 164 3
170 31 226 19 36 47 72 78 96 26 22 50 42 53 45 15 18 153 70 186 70 12 0 27
6 33 14 6 8 26 16 44 19 77 11 220 48 261 66 25 12 52 21 61 21 23 0 149 95
181 137 15 19 24 42 21 51 -33 103 -55 131 -131 169 -82 40 -139 49 -261 42
-191 -12 -267 27 -336 168 -32 67 -33 77 -23 228 7 107 -8 178 -44 218 -19 21
-65 98 -83 137 -9 21 -7 33 13 70 12 25 36 56 52 69 15 14 34 31 41 38 8 7 18
13 24 13 6 0 25 6 43 14 18 8 64 23 102 33 74 20 98 41 146 133 13 25 36 68
52 95 45 81 51 96 64 175 36 204 43 239 58 293 9 32 16 88 16 125 0 37 6 110
14 162 8 52 17 124 21 160 11 96 34 136 120 204 41 32 75 62 75 66 0 5 38 46
84 92 46 47 87 95 91 107 8 26 -2 108 -14 116 -5 2 -12 17 -16 32 -6 26 -23
50 -83 121 -29 34 -140 112 -160 112 -7 0 -12 5 -12 10 0 6 -8 10 -18 10 -9 0
-34 14 -54 30 -62 52 -173 99 -283 123 -11 2 -74 1 -140 -3z m-2915 -2160 c0
-5 13 -24 29 -42 33 -38 60 -116 44 -126 -5 -4 -13 -24 -17 -45 -10 -56 -44
-106 -75 -113 -14 -3 -36 -11 -49 -17 -42 -20 -116 -13 -151 14 -29 22 -31 28
-28 72 3 34 13 61 35 90 17 23 53 72 79 109 46 65 50 67 91 68 23 0 42 -4 42
-10z m2820 -1042 c22 -51 16 -100 -17 -142 -20 -25 -27 -27 -58 -22 -55 11
-73 72 -42 138 37 78 89 89 117 26z m-1281 -823 c175 -18 181 -22 165 -84 -12
-47 -60 -105 -134 -160 -19 -14 -56 -43 -83 -65 -78 -64 -152 -53 -187 30 -4
12 -8 66 -7 121 2 107 16 145 60 163 30 12 26 12 186 -5z"/>
<path d="M157 962 c-33 -4 -79 -47 -75 -70 2 -11 15 -18 37 -20 21 -2 31 0 27
7 -4 6 9 17 29 25 23 10 35 22 35 34 0 23 -14 29 -53 24z"/>
</g>
</svg>
